# xmcd
# 
# Track frame offsets:
#     150
#     18905
#     36625
#     54124
#     68410
#     83722
#     117020
# 
# Disc length: 1934
# 
# Revision: 0
# Processed by: cddbd v1.5.2PL0 Copyright (c) Steve Scherf et al.
# Submitted via: fre:ac v1.0.17
# 
DISCID=4a078c07
DTITLE=Known As Anonymous - Known As Anonymous
DYEAR=0
DGENRE=
TTITLE0=Breathless
TTITLE1=Oleander
TTITLE2=Palace And The Sun
TTITLE3=Bellingham
TTITLE4=Meow
TTITLE5=We Don't Play
TTITLE6=Funky Physics
EXTD=
EXTT0=
EXTT1=
EXTT2=
EXTT3=
EXTT4=
EXTT5=
EXTT6=
PLAYORDER=
